<svg width="2220" height="1182" viewBox="0 0 2220 1182" fill="none" xmlns="http://www.w3.org/2000/svg">
<path d="M41.5903 276.506H0V1182H2220V271.524H2152.53V274.638H2105.4V307.021H2074.9L2059.18 305.153L2056.41 287.715H2037.93V263.428H1965.84L1962.14 310.758H1956.59V247.236H1902.06V251.595H1878.03C1839.83 242.254 1746.79 224.817 1680.25 229.799C1597.07 236.026 1429.78 153.199 1405.75 148.84C1386.53 145.352 1385.42 147.387 1387.27 148.84C1379.57 146.764 1358.8 145.477 1337.36 156.936C1315.92 168.395 1198.42 206.964 1142.35 224.817L1120.17 221.703L1117.39 236.026H1100.76V219.835L1069.33 224.817L1007.41 219.835L1000.02 304.53L970.441 306.398L966.744 224.817H903.897L898.351 324.458H879.371V292.698L872.473 291.452V283.356H850.291V289.584H835.619L837.352 293.943H823.489V301.416H809.625V317.608L783.747 320.722V325.704L765.262 321.345V310.758H759.717V306.398H746.778L747.702 310.758H741.232L743.081 343.141H738.46V322.59H730.142V318.231H716.278V322.59H697.794L698.718 338.159H688.551V340.65L669.142 340.027V343.764H642.34V338.159H589.659L588.734 331.309L576.719 328.818V323.836H555.462V328.818H543.447V338.159H524.963C522.744 336.166 524.038 322.383 524.963 315.74H534.205V313.249H531.432V300.171H536.978V298.925L533.281 298.302V297.057L518.493 295.189L517.569 285.847L516.644 271.524L518.493 269.655V267.164H514.796L513.872 254.709H520.341V250.973L512.948 250.35V241.008H517.569C518.801 239.97 520.341 237.646 516.644 236.649C512.948 235.653 512.639 229.591 512.948 226.685L517.569 226.062C518.493 225.232 519.047 223.571 513.872 223.571C508.696 223.571 509.251 216.928 510.175 213.607L512.948 212.984V210.493L510.175 209.87V198.661H506.478L512.023 194.924C509.559 193.056 505.369 189.319 508.326 189.319C511.284 189.319 508.326 186.413 506.478 184.96L505.554 175.619L508.326 174.996V172.505L505.554 171.259V165.032L506.478 159.427C507.71 156.105 509.435 148.715 506.478 145.726C503.52 142.737 507.71 134.101 510.175 130.157V117.079H503.705C495.572 119.072 494.155 58.9547 494.463 28.647H491.69V0H489.842V28.647H486.145C486.884 88.432 483.372 112.097 481.524 116.456L475.978 117.079C475.67 122.891 475.239 134.516 475.978 134.516C476.903 134.516 481.524 143.858 475.978 146.349C471.542 148.342 475.362 159.634 477.827 165.032V172.505H475.978V174.996L477.827 175.619V184.337L474.13 185.583L475.978 188.074C475.978 189.319 475.054 192.059 471.357 193.056C467.66 194.052 472.281 198.038 475.054 199.906L474.13 210.493H471.357V212.984H475.054L474.13 222.326H468.585V223.571H465.812L464.888 226.062H473.206L471.357 236.026L469.509 236.649V241.008H466.736V244.122L463.963 247.236H471.357V250.35H463.963V254.709L469.509 255.332L468.585 267.164L463.963 268.41L468.585 270.278L466.736 297.057H455.645V298.925H446.403L451.024 302.039L452.873 314.494H451.024V317.608H461.191V326.949H421.449V315.117H413.131V324.458H404.813V320.099H381.707V219.835H286.511V320.099H268.027V315.117H243.997V293.943H221.815V312.626H194.088V272.769H142.331V276.506H128.468V312.626H69.3172V320.099H59.1507V303.907H41.5903V276.506Z" fill="white"/>
</svg>
