<svg width="65" height="65" viewBox="0 0 65 65" fill="none" xmlns="http://www.w3.org/2000/svg">
<path d="M29.075 46.9444H34.4916V65H29.075V46.9444Z" fill="#BE1931"/>
<path d="M37.4092 35.1343L26.1552 35.1379C26.1028 35.3257 21.1989 52.334 4.44336 65H14.9607C19.3897 62.01 25.2885 60.1647 31.7813 60.1647C38.2741 60.1647 44.1746 62.01 48.6036 65H59.1246C42.4322 52.3647 37.4616 35.3221 37.4092 35.1343ZM31.7831 54.7481C27.8993 54.7481 24.1961 55.3421 20.7818 56.3839C22.8626 53.685 24.7447 50.8385 26.4134 47.8671H37.151C38.8196 50.8385 40.7017 53.685 42.7825 56.3839C39.2175 55.2958 35.5104 54.7445 31.7831 54.7481Z" fill="#DD2E44"/>
<path d="M26.2509 28.9575C25.8756 31.0846 25.4026 33.1933 24.8335 35.2769H38.8356C38.2665 33.1933 37.7935 31.0846 37.4182 28.9575H26.2509Z" fill="#DD2E44"/>
<path d="M42.286 35.3636L40.7062 34.2044C40.6231 34.1445 40.5233 34.1123 40.4209 34.1124H23.1832C23.0808 34.1123 22.981 34.1445 22.898 34.2044L21.3181 35.3636C21.2576 35.4079 21.209 35.4666 21.1769 35.5344C21.1447 35.6022 21.13 35.6769 21.1339 35.7518C21.1339 35.7518 21.5023 41.9647 21.6124 42.1651C21.7442 42.4053 22.5296 43.0318 22.6741 43.0318H40.93C41.0745 43.0318 41.8581 42.4071 41.9917 42.1651C42.1037 41.9629 42.4702 35.7518 42.4702 35.7518C42.4742 35.6769 42.4594 35.6022 42.4273 35.5344C42.3951 35.4666 42.3466 35.4079 42.286 35.3636ZM36.4703 22.9396H27.197C26.925 24.9521 26.6096 26.9586 26.2509 28.9575H37.4164C37.0577 26.9586 36.7423 24.9521 36.4703 22.9396Z" fill="#CDD6DD"/>
<path d="M35.703 16.6201H27.9644C27.7383 18.7301 27.4825 20.8368 27.197 22.9396H36.4704C36.1858 20.8367 35.93 18.73 35.703 16.6201Z" fill="#DD2E44"/>
<path d="M35.4917 14.6051C35.4466 14.6124 28.2316 14.6088 28.1774 14.5997C28.116 15.2028 28.0456 15.8708 27.9644 16.6201H35.703L35.4917 14.6051Z" fill="#CDD6DD"/>
<path d="M35.4918 14.6051C35.3853 13.5742 35.248 12.2922 35.248 12.2922H28.4212C28.4212 12.2922 28.284 13.5724 28.1775 14.5997C28.2317 14.6087 35.4467 14.6124 35.4918 14.6051Z" fill="#AAB8C2"/>
<path d="M27.3994 10.6546V13.0343C27.3994 13.5326 27.8201 13.9371 28.3401 13.9371H35.3601C35.4812 13.9397 35.6016 13.9184 35.7144 13.8745C35.8273 13.8305 35.9304 13.7647 36.0177 13.6808C36.1051 13.597 36.1751 13.4967 36.2237 13.3858C36.2722 13.2748 36.2985 13.1554 36.3008 13.0343V10.6546H27.3994Z" fill="#E1E8ED"/>
<path d="M35.3583 7.37208H33.374L33.0039 0.586806C33.0015 0.501556 32.9657 0.420651 32.9042 0.361541C32.8428 0.302431 32.7605 0.269853 32.6752 0.270834H31.1441C31.0589 0.269853 30.9766 0.302431 30.9151 0.361541C30.8537 0.420651 30.8179 0.501556 30.8155 0.586806L30.4454 7.37208H28.3401C28.219 7.36945 28.0986 7.39072 27.9858 7.43469C27.8729 7.47866 27.7699 7.54446 27.6825 7.62832C27.5951 7.71218 27.5251 7.81245 27.4765 7.92339C27.428 8.03434 27.4018 8.15377 27.3994 8.27486V10.6546H36.299V8.27486C36.2967 8.15377 36.2704 8.03434 36.2219 7.92339C36.1733 7.81245 36.1033 7.71218 36.0159 7.62832C35.9286 7.54446 35.8255 7.47866 35.7126 7.43469C35.5998 7.39072 35.4794 7.36945 35.3583 7.37208Z" fill="#DD2E44"/>
</svg>
