<svg width="65" height="65" viewBox="0 0 65 65" fill="none" xmlns="http://www.w3.org/2000/svg">
<path d="M29.0749 46.9444H34.4915V65H29.0749V46.9444Z" fill="#BE1931"/>
<path d="M37.4093 35.1343L26.1553 35.1379C26.1029 35.3257 21.199 52.334 4.44347 65H14.9608C19.3899 62.01 25.2886 60.1647 31.7814 60.1647C38.2742 60.1647 44.1747 62.01 48.6038 65H59.1247C42.4324 52.3647 37.4617 35.3221 37.4093 35.1343ZM31.7832 54.7481C27.8994 54.7481 24.1963 55.3421 20.7819 56.3839C22.8627 53.685 24.7449 50.8385 26.4135 47.8671H37.1511C38.8197 50.8385 40.7018 53.685 42.7826 56.3839C39.2177 55.2958 35.5105 54.7445 31.7832 54.7481Z" fill="#DD2E44"/>
<path d="M26.251 28.9575C25.8757 31.0846 25.4027 33.1933 24.8336 35.2769H38.8357C38.2666 33.1933 37.7936 31.0846 37.4183 28.9575H26.251Z" fill="#DD2E44"/>
<path d="M42.2861 35.3636L40.7063 34.2044C40.6232 34.1445 40.5234 34.1123 40.421 34.1124H23.1833C23.0809 34.1123 22.9811 34.1445 22.8981 34.2044L21.3182 35.3636C21.2577 35.4079 21.2091 35.4666 21.177 35.5344C21.1448 35.6022 21.13 35.6769 21.134 35.7518C21.134 35.7518 21.5024 41.9647 21.6125 42.1651C21.7443 42.4053 22.5297 43.0318 22.6742 43.0318H40.9301C41.0746 43.0318 41.8582 42.4071 41.9918 42.1651C42.1038 41.9629 42.4703 35.7518 42.4703 35.7518C42.4743 35.6769 42.4595 35.6022 42.4273 35.5344C42.3952 35.4666 42.3466 35.4079 42.2861 35.3636ZM36.4704 22.9396H27.1971C26.9251 24.9521 26.6097 26.9586 26.251 28.9575H37.4165C37.0578 26.9586 36.7424 24.9521 36.4704 22.9396Z" fill="#CDD6DD"/>
<path d="M35.7031 16.6201H27.9644C27.7384 18.7301 27.4826 20.8368 27.1971 22.9396H36.4704C36.1859 20.8367 35.93 18.73 35.7031 16.6201Z" fill="#DD2E44"/>
<path d="M35.4918 14.6051C35.4467 14.6124 28.2317 14.6088 28.1775 14.5997C28.1161 15.2028 28.0457 15.8708 27.9644 16.6201H35.7031L35.4918 14.6051Z" fill="#CDD6DD"/>
<path d="M35.4918 14.6051C35.3853 13.5742 35.2481 12.2922 35.2481 12.2922H28.4212C28.4212 12.2922 28.284 13.5724 28.1775 14.5997C28.2317 14.6087 35.4467 14.6124 35.4918 14.6051Z" fill="#AAB8C2"/>
<path d="M27.3993 10.6546V13.0343C27.3993 13.5326 27.82 13.9371 28.34 13.9371H35.36C35.4811 13.9397 35.6015 13.9184 35.7143 13.8745C35.8272 13.8305 35.9303 13.7647 36.0176 13.6808C36.105 13.597 36.175 13.4967 36.2236 13.3858C36.2721 13.2748 36.2983 13.1554 36.3007 13.0343V10.6546H27.3993Z" fill="#E1E8ED"/>
<path d="M35.3582 7.37208H33.3739L33.0037 0.586806C33.0014 0.501556 32.9656 0.420651 32.9041 0.361541C32.8427 0.302431 32.7604 0.269853 32.6751 0.270834H31.144C31.0588 0.269853 30.9765 0.302431 30.915 0.361541C30.8536 0.420651 30.8178 0.501556 30.8154 0.586806L30.4453 7.37208H28.34C28.2189 7.36945 28.0985 7.39072 27.9857 7.43469C27.8728 7.47866 27.7697 7.54446 27.6824 7.62832C27.595 7.71218 27.525 7.81245 27.4764 7.92339C27.4279 8.03434 27.4017 8.15377 27.3993 8.27486V10.6546H36.2989V8.27486C36.2965 8.15377 36.2703 8.03434 36.2218 7.92339C36.1732 7.81245 36.1032 7.71218 36.0158 7.62832C35.9284 7.54446 35.8254 7.47866 35.7125 7.43469C35.5997 7.39072 35.4793 7.36945 35.3582 7.37208Z" fill="#DD2E44"/>
</svg>
